<svg width="101" height="102" viewBox="0 0 101 102" fill="none" xmlns="http://www.w3.org/2000/svg">
<path d="M100.332 4.64187L100.784 3.82548L100.976 2.9903L100.872 2.26034L100.559 1.5642L99.95 0.973284L99.1505 0.46973L98.1594 0.173803L96.908 0.0695248L3.75502 0L2.9903 0.0695248L2.2951 0.295932L1.66942 0.678292L1.09541 1.13017L0.678292 1.70418L0.330691 2.36462L0.104279 3.09458L0.0347595 3.89406L0 98.8198L0.104279 99.95L0.43497 100.715L0.938519 101.254L1.5642 101.515L2.17297 101.585L2.86817 101.479L3.42527 101.254L3.96358 100.906L100.332 4.64187Z" fill="#F41328"/>
<path d="M7.38872 5.82467L6.98851 5.56351L6.60615 5.45923L6.17212 5.59827L5.85834 5.82467L5.63287 6.13752L5.51074 6.57154L5.59811 6.95391L5.85834 7.35412L7.38872 5.82467Z" fill="white"/>
<path d="M22.6016 24.1836L23.0187 24.4269L23.4358 24.4965L23.8529 24.4091L24.1836 24.1836L24.4091 23.8529L24.4964 23.4358L24.4269 23.0187L24.1836 22.6016L22.6016 24.1836Z" fill="white"/>
<path d="M5.89322 16.1343L5.633 16.5514L5.56348 16.9507L5.66776 17.3509L5.89322 17.7163L6.207 17.9249L6.64103 18.0292L7.02339 17.9596L7.4236 17.7163L5.89322 16.1343Z" fill="white"/>
<path d="M18.5158 6.71054L18.777 6.29435L18.8465 5.89321L18.7422 5.45918L18.5158 5.12849L18.1851 4.91993L17.7859 4.8335L17.3509 4.88611L16.9507 5.12849L18.5158 6.71054Z" fill="white"/>
<path d="M5.89322 26.9126L5.633 27.3128L5.56348 27.7478L5.66776 28.147L5.89322 28.4599L6.207 28.7041L6.64103 28.8084L7.02339 28.738L7.4236 28.4599L5.89322 26.9126Z" fill="white"/>
<path d="M29.2077 6.7633L29.4688 6.32833L29.5384 5.92906L29.4341 5.51194L29.2077 5.1634L28.8779 4.95484L28.4599 4.86841L28.0606 4.92008L27.6782 5.1634L29.2077 6.7633Z" fill="white"/>
<path d="M14.6387 63.0574L14.9515 63.3881L15.317 63.5967L15.7172 63.7357L16.0648 63.8052L16.4471 63.7705L16.8116 63.6662L17.1245 63.4755L17.473 63.1964L17.0897 62.8141L16.8464 63.0574L16.5862 63.1617L16.3598 63.2838L16.0648 63.2321H15.8562L15.5424 63.0931L15.2474 62.9362L14.9863 62.675L14.6387 63.0574Z" fill="#F41328"/>
<path d="M8.51904 56.9727L14.6387 63.0575L14.9863 62.6752L8.88355 56.6082L8.51904 56.9727Z" fill="#F41328"/>
<path d="M8.48435 53.7737L7.92819 54.5741L7.75439 55.3905L7.96295 56.19L8.51911 56.9725L8.88362 56.608L8.48435 55.9645L8.32746 55.3905L8.43174 54.7817L8.8498 54.157L8.48435 53.7737Z" fill="#F41328"/>
<path d="M11.1271 53.3219L10.7616 53.2007L10.3267 53.1659L10.0317 53.0955L9.66622 53.1659L9.35337 53.2345L9.02362 53.3914L8.79722 53.5821L8.48438 53.7737L8.84983 54.157L9.05838 54.0002L9.2491 53.8264L9.51026 53.739L9.75359 53.6873H10.3267L10.6752 53.7221L10.988 53.8264L11.1271 53.3219Z" fill="#F41328"/>
<path d="M15.6297 54.6088L11.1268 53.3218L10.9878 53.8263L15.4728 55.1293L15.6297 54.6088Z" fill="#F41328"/>
<path d="M17.4733 55.9298L17.7513 55.46L17.4385 55.321L17.09 55.1998L16.8814 55.0946L16.6212 54.9734L16.36 54.8691L16.065 54.7479L15.8564 54.6784L15.63 54.6089L15.4731 55.1293L15.7174 55.1998L15.925 55.2862L16.1345 55.3905L16.3948 55.4957L16.6559 55.6169L16.9509 55.7034L17.2121 55.8086L17.508 55.9645L17.7861 55.4957L17.4733 55.9298Z" fill="#F41328"/>
<path d="M16.168 54.8343L16.3249 55.0081L16.4817 55.1293L16.6208 55.2345L16.7767 55.3904L16.9505 55.5821L17.1243 55.6694L17.2812 55.8085L17.4729 55.9297L17.7857 55.4956L17.5772 55.3904L17.4381 55.2345L17.2465 55.1293L17.1243 55.0081L16.9853 54.869L16.8463 54.6783L16.7072 54.574L16.5513 54.4519L16.168 54.8343Z" fill="#F41328"/>
<path d="M13.3179 51.9315L16.1682 54.8345L16.5515 54.4521L13.7171 51.583L13.3179 51.9315Z" fill="#F41328"/>
<path d="M13.2138 49.0972L12.744 49.7576L12.605 50.4885L12.7788 51.2354L13.318 51.9315L13.7173 51.583L13.2833 51.0099L13.1611 50.4885L13.2476 49.9662L13.5961 49.4626L13.2138 49.0972Z" fill="#F41328"/>
<path d="M16.0299 49.1668L15.6644 48.8718L15.3168 48.6454L14.9514 48.4885L14.6038 48.4189L14.2562 48.4885L13.8907 48.5758L13.5431 48.8022L13.2134 49.0972L13.5957 49.4627L13.8569 49.2372L14.0993 49.0972L14.3257 49.0108H14.8819L15.0904 49.0972L15.3516 49.3236L15.6644 49.5322L16.0299 49.1668Z" fill="#F41328"/>
<path d="M22.097 55.2861L16.03 49.1665L15.6646 49.532L21.7494 55.6516L22.097 55.2861Z" fill="#F41328"/>
<path d="M22.254 58.4167L22.8102 57.6688L22.9144 56.8694L22.7406 56.0511L22.0971 55.2864L21.7495 55.6518L22.2192 56.2606L22.393 56.8694L22.2888 57.4593L21.8885 58.0512L22.254 58.4167Z" fill="#F41328"/>
<path d="M19.4722 59.0591L19.924 59.1633L20.3243 59.2329H20.654L21.0195 59.1633L21.3492 59.0591L21.7147 58.8674L21.958 58.6767L22.2539 58.4165L21.8885 58.051L21.662 58.2239L21.384 58.4165L21.1237 58.5377L20.9499 58.6419H19.9936L19.6281 58.5377L19.4722 59.0591Z" fill="#F41328"/>
<path d="M15.0211 57.7035H14.9863L19.4722 59.0591L19.6282 58.5377L15.1254 57.199H15.0906L15.0211 57.7035Z" fill="#F41328"/>
<path d="M13.2471 56.3816L12.9521 56.8156L13.2133 56.9725L13.4735 57.1642L13.7516 57.2854L13.9959 57.3906L14.2909 57.4949L14.5173 57.5813L14.7775 57.6339L15.0208 57.7034L15.0904 57.1989L14.9166 57.1294L14.6563 57.0599L14.4299 56.9725L14.2214 56.8692L13.9602 56.747L13.7169 56.6418L13.5083 56.5375L13.2471 56.3816L12.9521 56.8156L13.2471 56.3816Z" fill="#F41328"/>
<path d="M14.5173 57.4949L14.3604 57.3201L14.2214 57.1989L14.0645 57.0946L13.9254 56.9378L13.7864 56.747L13.5957 56.6418L13.3871 56.4859L13.2471 56.3816L12.9521 56.8156L13.0912 56.9378L13.2828 57.0946L13.3871 57.1989L13.5431 57.3201L13.7169 57.4592L13.8568 57.6339L13.9959 57.7372L14.134 57.8594L14.5173 57.4949Z" fill="#F41328"/>
<path d="M17.3857 60.38L14.5176 57.4949L14.1343 57.8594L17.0203 60.7454L17.3857 60.38Z" fill="#F41328"/>
<path d="M17.4728 63.1964L17.9942 62.5359L18.1333 61.7712L17.9595 61.0929L17.3855 60.3799L17.02 60.7453L17.4381 61.3193L17.5424 61.7712L17.4728 62.3105L17.0895 62.814L17.4728 63.1964Z" fill="#F41328"/>
<path d="M22.3931 55.617L22.7059 55.8603L23.0187 56.0867L23.3842 56.19L23.7487 56.2605L24.0615 56.19L24.4091 56.1215L24.7746 55.9298L25.0527 55.6696L24.7051 55.321L24.4618 55.4958L24.2532 55.617L23.992 55.6696H23.4706L23.2452 55.5822L22.984 55.4253L22.7754 55.2346L22.3931 55.617Z" fill="#F41328"/>
<path d="M21.8535 54.9387L21.8883 54.9735L21.9578 55.0946L22.0621 55.2346L22.2537 55.4601L22.3928 55.617L22.7751 55.2346L22.6013 55.0946L22.497 54.9387L22.3928 54.7818L22.3232 54.6785L22.358 54.7132L21.8535 54.9387Z" fill="#F41328"/>
<path d="M17.8901 47.2022L21.8537 54.9387L22.3582 54.7132L18.3937 46.9758L17.8901 47.2022Z" fill="#F41328"/>
<path d="M17.9598 44.3857L17.508 44.9767L17.3511 45.655L17.5427 46.3502L17.8903 47.2022L18.3939 46.9758L18.0641 46.1933L17.9598 45.655L18.0294 45.2031L18.3244 44.7681L17.9598 44.3857Z" fill="#F41328"/>
<path d="M18.6547 43.6558L17.9595 44.3857L18.324 44.7681L19.0201 44.0034L18.6547 43.6558Z" fill="#F41328"/>
<path d="M21.4713 43.621L21.0542 43.4293L20.654 43.2386L20.2894 43.1691L19.9588 43.0986L19.6281 43.1334L19.2805 43.2039L18.9507 43.3946L18.6548 43.6557L19.0202 44.0033L19.2457 43.8464L19.4374 43.7253L19.7154 43.6557L19.9588 43.621L20.2199 43.6905L20.5149 43.7769L20.8456 43.9517L21.2458 44.1255L21.4713 43.621Z" fill="#F41328"/>
<path d="M29.2428 47.5847L21.4716 43.6211L21.2461 44.1256L29.0173 48.0892L29.2428 47.5847Z" fill="#F41328"/>
<path d="M29.9209 48.089L29.7818 47.9321L29.5385 47.7583L29.3468 47.6888L29.2426 47.5845L29.0171 48.089L29.1383 48.1237L29.2426 48.1932L29.3995 48.3144L29.5385 48.4544L29.9209 48.089Z" fill="#F41328"/>
<path d="M29.9905 50.7487L30.4254 50.123L30.5645 49.4278L30.3907 48.7148L29.9209 48.0891L29.5386 48.4546L29.8862 48.9412L29.9905 49.4278L29.9209 49.8976L29.6081 50.3842L29.9905 50.7487Z" fill="#F41328"/>
<path d="M27.8521 51.1311L28.147 51.2354L28.4261 51.3228L28.7032 51.3576L28.9822 51.3228L29.2772 51.2354L29.5036 51.1311L29.7817 50.9752L29.9903 50.7488L29.6079 50.3843L29.4689 50.5233L29.2772 50.6097L29.0508 50.714L28.9127 50.8014L28.7032 50.7488L28.4956 50.8014L28.2861 50.714L28.0606 50.6097L27.8521 51.1311Z" fill="#F41328"/>
<path d="M27.4697 50.7138L27.1738 50.8012L27.8521 51.1309L28.0606 50.6095L27.4002 50.2619L27.0864 50.3483L27.4002 50.2619L27.2433 50.1924L27.0864 50.3483L27.4697 50.7138Z" fill="#F41328"/>
<path d="M25.0528 52.8699L24.9833 53.1658L27.4701 50.7138L27.0868 50.3484L24.601 52.7825L24.5314 53.0954L24.601 52.7825L24.4619 52.9394L24.5314 53.0954L25.0528 52.8699Z" fill="#F41328"/>
<path d="M25.3833 53.5822L25.0527 52.8701L24.5312 53.0956L24.8789 53.7739L25.3833 53.5822Z" fill="#F41328"/>
<path d="M25.0527 55.6695L25.435 55.1998L25.5741 54.6784V54.1222L25.3834 53.582L24.8789 53.7737L25.0527 54.1908V54.6089L24.9136 54.9734L24.7051 55.321L25.0527 55.6695Z" fill="#F41328"/>
<path d="M21.5063 46.8366L21.1239 47.2021L24.8789 49.3929L25.1749 48.941L21.4367 46.7502L21.0544 47.1326L21.4367 46.7502L20.5151 46.1931L21.0544 47.1326L21.5063 46.8366Z" fill="#F41328"/>
<path d="M23.2798 50.5231L23.7138 50.5748L21.5061 46.8367L21.0542 47.1326L23.245 50.8707L23.6791 50.9055L23.245 50.8707L23.4357 51.1657L23.6791 50.9055L23.2798 50.5231Z" fill="#F41328"/>
<path d="M24.8787 49.393L24.844 48.9759L23.2798 50.5232L23.6791 50.9056L25.2094 49.3583L25.1747 48.9412L25.2094 49.3583L25.4697 49.1319L25.1747 48.9412L24.8787 49.393Z" fill="#F41328"/>
<path d="M23.957 42.1601L29.3467 47.5845L29.7469 47.2022L24.3225 41.8125L23.957 42.1601Z" fill="#F41328"/>
<path d="M23.853 38.6831L23.4359 39.135L23.1747 39.5352L23.0187 39.9871L22.9492 40.3873L23.0187 40.8392L23.2451 41.2384L23.5054 41.6913L23.9573 42.16L24.3227 41.8124L23.9573 41.3953L23.7139 41.013L23.5401 40.6832V40.0387L23.7139 39.7785L23.8877 39.4309L24.2184 39.0486L23.853 38.6831Z" fill="#F41328"/>
<path d="M25.2791 37.2749L23.853 38.6832L24.2185 39.0486L25.6793 37.6573L25.2791 37.2749Z" fill="#F41328"/>
<path d="M25.7476 36.8408L25.6086 36.9451L25.5043 37.0484L25.3831 37.1706L25.2788 37.2749L25.679 37.6572L25.7824 37.5351L25.8876 37.4317L25.9909 37.3096L26.0961 37.2053L25.7476 36.8408Z" fill="#F41328"/>
<path d="M28.1817 34.9104H28.1469L27.8519 35.0494L27.5391 35.2411L27.2432 35.4675L26.9125 35.693L26.6692 35.9532L26.3563 36.2322L26.0266 36.5281L25.7476 36.841L26.0961 37.2055L26.3742 36.9096L26.7387 36.6136L27.0168 36.3008L27.2779 36.1448L27.5391 35.9194L27.8519 35.693L28.0605 35.5718L28.3386 35.4327H28.3207L28.1817 34.9104Z" fill="#F41328"/>
<path d="M31.6591 35.814L31.2767 35.4326L30.8774 35.1367L30.4256 34.9103L29.9558 34.7712L29.5039 34.6848H29.0868L28.6002 34.7712L28.1821 34.9103L28.3212 35.4326L28.7035 35.2757H29.8863L30.217 35.4326L30.5646 35.5717L30.9122 35.8845L31.2767 36.1626L31.6591 35.814Z" fill="#F41328"/>
<path d="M32.1811 38.3883L32.5287 38.735L32.6499 37.9186L32.5287 37.1708L32.1811 36.423L31.6587 35.8142L31.2764 36.1627L31.7461 36.7368L32.0242 37.3098L32.0589 37.9186L32.0242 38.5612L32.3896 38.9088L32.1811 38.3883Z" fill="#F41328"/>
<path d="M35.6581 39.2742L35.2757 38.8749L34.8755 38.6137L34.4236 38.3535L33.9887 38.2314L33.5368 38.1619H33.1366L32.5983 38.2314L32.1812 38.3883L32.3897 38.9087L32.7721 38.7697L33.1366 38.6833H33.5368L33.9192 38.7697L34.1972 38.8749L34.5627 39.0487L34.9103 39.3089L35.2757 39.6565L35.6581 39.2742Z" fill="#F41328"/>
<path d="M36.8401 42.8385L36.9096 42.3866L36.9791 41.9178L36.8748 41.465L36.8053 40.9783L36.6146 40.5265L36.3365 40.0746L36.0575 39.6565L35.6582 39.2742L35.2759 39.6565L35.6235 40.022L35.9185 40.3874L36.1101 40.7698L36.267 41.1343L36.3365 41.5345L36.3882 41.9178V42.2992L36.3018 42.6816L36.8401 42.8385Z" fill="#F41328"/>
<path d="M34.7366 45.7243L35.0495 45.3936L35.3971 45.046L35.693 44.7163L36.0237 44.3856L36.267 44.0032L36.5272 43.6209L36.6841 43.2385L36.8401 42.8383L36.3018 42.6814L36.1627 43.0985L36.0237 43.3944L35.849 43.7251L35.5709 44.0032L35.3106 44.3508L35.0147 44.6815L34.684 45.0113L34.3364 45.3598L34.7366 45.7243Z" fill="#F41328"/>
<path d="M32.8067 47.654L34.7363 45.7244L34.3361 45.3599L32.4243 47.2717L32.8067 47.654Z" fill="#F41328"/>
<path d="M29.3467 47.5845L29.8164 48.0026L30.2166 48.2628L30.6506 48.4883L31.0856 48.5756L31.5027 48.4883L31.9546 48.3492L32.3896 48.0364L32.8067 47.654L32.4243 47.2717L32.0241 47.6193L31.7461 47.8457L31.4332 47.9669H30.8075L30.4938 47.8457L30.1809 47.5845L29.7469 47.2021L29.3467 47.5845Z" fill="#F41328"/>
<path d="M32.7375 41.7251L32.9808 42.0906L33.0503 42.3865L32.8765 42.7172L32.4941 43.2038L32.8765 43.5862L33.3115 43.0122L33.5717 42.456L33.5022 41.882L33.0851 41.3606L32.7375 41.7251Z" fill="#F41328"/>
<path d="M31.2429 42.0041L31.5031 41.8125L31.7464 41.6217L31.9202 41.4996L32.094 41.4301H32.2162L32.3374 41.4996L32.529 41.5691L32.7376 41.7251L33.0852 41.3606L32.8419 41.1342L32.5638 40.9782L32.2678 40.9087H32.0245L31.7117 40.9782L31.4336 41.1699L31.1377 41.3606L30.8774 41.6565L31.2429 42.0041Z" fill="#F41328"/>
<path d="M30.1464 42.7688V43.1333L31.2428 42.0041L30.8773 41.6565L29.7819 42.7688V43.1333V42.7688L29.5386 42.9426L29.7819 43.1333L30.1464 42.7688Z" fill="#F41328"/>
<path d="M31.3459 44.3508H31.7461L30.1462 42.7688L29.7817 43.1333L31.3459 44.7163H31.7461H31.3459L31.5376 44.9418L31.7461 44.7163L31.3459 44.3508Z" fill="#F41328"/>
<path d="M32.4942 43.2039L31.3462 44.3509L31.7464 44.7164L32.8766 43.5862L32.4942 43.2039Z" fill="#F41328"/>
<path d="M29.3997 38.9088L29.6082 39.2395L29.7125 39.5006L29.5387 39.8135L29.208 40.1958L29.5735 40.5613L29.9906 40.0746L30.217 39.5701L30.1465 39.014L29.782 38.5273L29.3997 38.9088Z" fill="#F41328"/>
<path d="M27.7828 39.4311L28.0608 39.1352L28.3389 38.9088L28.5644 38.735L28.7382 38.6485H29.0172L29.1731 38.735L29.3996 38.9088L29.7819 38.5273L29.4691 38.2662L29.1731 38.1271L28.8782 38.0576L28.5644 38.1271L28.2863 38.2662L27.9913 38.4569L27.7132 38.7697L27.4004 39.0487L27.7828 39.4311Z" fill="#F41328"/>
<path d="M27.0865 39.744V40.0747L27.7827 39.4312L27.4003 39.0488L26.7389 39.744V40.0747V39.744L26.4956 39.9178L26.7389 40.0747L27.0865 39.744Z" fill="#F41328"/>
<path d="M28.1818 41.2036H28.5294L27.0864 39.7437L26.7388 40.0743L28.1818 41.569H28.5294H28.1818L28.3387 41.8123L28.5294 41.569L28.1818 41.2036Z" fill="#F41328"/>
<path d="M29.208 40.1958L28.1821 41.2038L28.5297 41.5693L29.5735 40.5613L29.208 40.1958Z" fill="#F41328"/>
<path d="M37.4668 40.3L37.8144 40.6476L38.162 40.874L38.5265 40.9783L38.9098 41.0478L39.2396 40.9783L39.6219 40.874L39.9874 40.6476L40.3002 40.3517L39.9526 39.9872L39.6914 40.1957L39.3964 40.3517L39.17 40.4569H38.6139L38.3875 40.3517L38.0746 40.1957L37.8482 39.9524L37.4668 40.3Z" fill="#F41328"/>
<path d="M31.207 34.093L37.4666 40.3L37.8481 39.9524L31.5725 33.7463L31.207 34.093Z" fill="#F41328"/>
<path d="M31.1373 31.1721L30.599 31.8504L30.46 32.5982L30.6507 33.3451L31.2068 34.0929L31.5723 33.7462L31.1721 33.1375L31.0509 32.5982L31.1373 32.059L31.5028 31.5376L31.1373 31.1721Z" fill="#F41328"/>
<path d="M34.0237 31.2078L33.7109 30.9118L33.3116 30.6507L32.9462 30.5295L32.5638 30.46L32.2162 30.5295L31.8507 30.6507L31.4684 30.8771L31.1377 31.1721L31.5031 31.5375L31.7812 31.3111L32.0593 31.1721L32.2679 31.0509H32.8766L33.0852 31.1721L33.398 31.3468L33.6592 31.5723L34.0237 31.2078Z" fill="#F41328"/>
<path d="M40.2307 37.4319L34.0237 31.208L33.6592 31.5725L39.8831 37.8143L40.2307 37.4319Z" fill="#F41328"/>
<path d="M40.2999 40.3517L40.8382 39.6913L41.013 38.9087L40.8035 38.1618L40.2304 37.4319L39.8828 37.8142L40.2652 38.3883L40.4211 38.9087L40.2999 39.4658L39.9523 39.9872L40.2999 40.3517Z" fill="#F41328"/>
<path d="M41.4998 33.6581V33.6243H40.7173L40.4909 33.6581L40.2306 33.7107L39.9526 33.7802L39.6914 33.9202L39.4312 34.1457L39.8135 34.4933L39.9873 34.3373L40.1611 34.2669L40.3002 34.1983L40.4909 34.1804L40.7173 34.1983H41.4998V33.6581Z" fill="#F41328"/>
<path d="M42.9425 33.1724L42.8035 33.3114L42.6118 33.4326L42.4559 33.5021L42.299 33.5716L42.1252 33.6242L41.9862 33.6581L41.7259 33.6242L41.4995 33.6581V34.1804L41.7259 34.1983L41.9862 34.1804L42.1947 34.1456L42.4559 34.093L42.6813 34.0245L42.9078 33.8854L43.0985 33.7802L43.308 33.5369L42.9425 33.1724Z" fill="#F41328"/>
<path d="M43.2379 31.9895L43.36 32.2159L43.3948 32.4593L43.2379 32.7721L42.9429 33.1723L43.3083 33.5368L43.6907 33.0502L43.9162 32.5288L43.8814 32.0591L43.6212 31.6072L43.2379 31.9895Z" fill="#F41328"/>
<path d="M41.1342 32.5636L41.5691 32.3372L41.9515 32.1812L42.2643 32.0243L42.5255 31.8853L42.7688 31.8505H42.9426L43.0986 31.92L43.2376 31.9896L43.6209 31.6072L43.3081 31.3986L43.0121 31.3113H42.7688L42.3865 31.347L42.0379 31.5029L41.726 31.6598L41.3606 31.8505L40.9087 32.0591L41.1342 32.5636Z" fill="#F41328"/>
<path d="M38.2314 33.6242L38.4926 33.5716L38.8045 33.5369L39.1004 33.4326L39.4311 33.3114L39.8135 33.2071L40.2306 33.0155L40.6477 32.8069L41.1344 32.5636L40.9089 32.0591L40.4213 32.2676L40.0221 32.4941L39.6566 32.7026L39.2742 32.8069L38.9445 32.9112L38.6486 33.0155L38.4222 33.0502L38.2314 33.085V33.6242Z" fill="#F41328"/>
<path d="M35.397 32.4938L35.6929 32.8067L36.0574 33.05L36.3881 33.2764L36.7705 33.4324L37.1359 33.5366L37.5004 33.5714L37.8837 33.6578L38.2313 33.624V33.0848L37.8837 33.05H37.5004L37.2054 33.0152L36.9095 32.911L36.6145 32.7719L36.3364 32.5981L36.0574 32.337L35.7793 32.1462L35.397 32.4938Z" fill="#F41328"/>
<path d="M35.9529 26.1479L35.2061 26.9474L34.649 27.8174L34.3014 28.5999L34.1802 29.4689L34.1971 30.2684L34.3887 31.0162L34.8059 31.8157L35.3968 32.494L35.7791 32.1464L35.2408 31.5029L34.9101 30.8772L34.7363 30.2167L34.6837 29.4689L34.8406 28.7737L35.1713 28.0259L35.6579 27.2434L36.3015 26.4956L35.9529 26.1479Z" fill="#F41328"/>
<path d="M41.3954 24.983L40.874 24.5659L40.2652 24.409L39.6565 24.2878L38.9782 24.3574L38.2313 24.5659L37.4318 24.9483L36.7357 25.4697L35.9531 26.148L36.3017 26.4956L37.0138 25.9216L37.7447 25.3833L38.3873 25.0873L39.0477 24.8788H39.6565L40.1957 24.9135L40.6476 25.0873L41.0131 25.3485L41.3954 24.983Z" fill="#F41328"/>
<path d="M41.4303 27.4001L41.8822 26.843L42.0034 26.2174L41.8474 25.5748L41.3955 24.9829L41.0132 25.3484L41.3082 25.8172L41.4303 26.2174L41.3608 26.5997L41.0479 27.0168L41.4303 27.4001Z" fill="#F41328"/>
<path d="M39.3613 27.9911L39.6216 27.9563L39.8827 27.9911L40.0734 27.9563L40.3872 27.9215L40.6127 27.8868L40.9086 27.8173L41.1688 27.6087L41.43 27.4001L41.0477 27.0168L40.8739 27.1737L40.6822 27.278L40.5263 27.3475L40.2998 27.4001L40.0734 27.4349L39.8827 27.4001L39.6216 27.4349L39.3613 27.4697V27.9911Z" fill="#F41328"/>
<path d="M38.1967 28.4599L38.3526 28.3735L38.4569 28.2871L38.5264 28.1818L38.6833 28.1471L38.8402 28.0954L38.9783 28.0259H39.17L39.3616 27.9911V27.4697L39.17 27.5045H38.9097L38.6833 27.574L38.5264 27.6088L38.301 27.7478L38.0746 27.8521L37.9881 27.9564L37.8481 28.0954L38.1967 28.4599Z" fill="#F41328"/>
<path d="M37.9879 29.4689L37.8836 29.2773L37.8479 29.0518L37.9531 28.8085L38.1964 28.46L37.8479 28.0955L37.5003 28.4957L37.3096 28.9823L37.3622 29.4342L37.6224 29.8513L37.9879 29.4689Z" fill="#F41328"/>
<path d="M39.5701 29.0864L39.2394 29.2771L38.9782 29.3993L38.7349 29.5035L38.4925 29.5731L38.3525 29.6078H38.1618L38.127 29.5731L37.988 29.4688L37.6226 29.8511L37.848 30.0249L38.0744 30.1471H38.3525L38.5611 30.0945L38.8749 30.0249L39.1351 29.9207L39.4658 29.8164L39.8134 29.6078L39.5701 29.0864Z" fill="#F41328"/>
<path d="M42.8034 27.887L42.4558 27.9217L42.0904 28.026L41.7259 28.1472L41.3078 28.2872L40.9086 28.46L40.4905 28.6517L40.0386 28.8781L39.5698 29.0867L39.8131 29.6081L40.265 29.3995L40.7169 29.174L41.134 28.9824L41.5342 28.8086L41.8818 28.6517L42.2294 28.5305L42.5254 28.4262L42.8034 28.3736V27.887Z" fill="#F41328"/>
<path d="M45.8109 28.9476L45.4633 28.6L45.1336 28.3735L44.7681 28.1819L44.3858 28.0259L44.0034 27.9217L43.621 27.8869L43.203 27.8174L42.8037 27.8869V28.3735H43.621L43.9508 28.4262L44.2289 28.5304L44.5248 28.7042L44.8376 28.8433L45.0988 29.0518L45.4286 29.313L45.8109 28.9476Z" fill="#F41328"/>
<path d="M45.238 35.7454L46.0027 34.8407L46.6115 33.9539L46.976 33.0501L47.1329 32.1811L47.0981 31.3469L46.8717 30.4948L46.4198 29.747L45.8111 28.9475L45.4287 29.313L45.968 30.0251L46.3503 30.7381L46.5767 31.4333L46.6115 32.1811L46.4546 32.9111L46.0901 33.7463L45.5856 34.5279L44.8726 35.3452L45.238 35.7454Z" fill="#F41328"/>
<path d="M39.5698 36.7366L40.0734 37.1706L40.7169 37.4318L41.43 37.5351L42.1252 37.5003L42.873 37.3096L43.6555 36.9451L44.4203 36.4228L45.2376 35.7454L44.8721 35.3452L44.1243 35.9878L43.4291 36.4923L42.7161 36.8061L42.0378 36.9799L41.43 37.0137L40.8738 36.9094L40.3872 36.7366L39.9522 36.3363L39.5698 36.7366Z" fill="#F41328"/>
<path d="M39.431 34.1455L39.0129 34.7364L38.9443 35.3969L39.1003 36.1099L39.57 36.7365L39.9524 36.3363L39.6217 35.8844L39.4657 35.3969L39.5353 34.8755L39.8133 34.4931L39.431 34.1455Z" fill="#F41328"/>
<path d="M50.6099 22.949L50.6794 23.3144L50.7489 23.6104L50.8353 23.8527L50.871 24.0613L51.3924 23.9918L51.3577 23.7832L51.2703 23.4704L51.2008 23.2449V22.949H50.6099Z" fill="#F41328"/>
<path d="M51.166 21.7842L50.9396 22.0275L50.7489 22.3234L50.6794 22.6541L50.6099 22.9491H51.2008V22.7405L51.2703 22.532L51.3924 22.3234L51.5484 22.1318L51.166 21.7842Z" fill="#F41328"/>
<path d="M53.8613 21.8537L53.5832 21.5757L53.2347 21.3849L52.8354 21.2807L52.4878 21.2102L52.1224 21.2459L51.7748 21.3492L51.4619 21.5061L51.166 21.7842L51.5484 22.1318L51.7579 21.958L51.9307 21.8885L52.1919 21.7842L52.4878 21.819H52.7481L53.0092 21.9233L53.2695 22.0275L53.4959 22.2192L53.8613 21.8537Z" fill="#F41328"/>
<path d="M54.7131 24.2879H54.747L54.6774 23.5758L54.4867 22.9144L54.2256 22.3235L53.8611 21.8538L53.4956 22.2192L53.7737 22.6016L53.9653 23.0534L54.156 23.6791V24.2879H54.7131Z" fill="#F41328"/>
<path d="M52.9743 27.9564L53.3915 27.5393L53.7212 27.0865L54.0002 26.7041L54.2605 26.2175L54.4521 25.7478L54.6081 25.2442L54.6776 24.7745L54.7133 24.2878H54.1909L54.1562 24.7745L54.0867 25.1747L53.9307 25.5749L53.7391 25.9911L53.5831 26.3744L53.2693 26.8084L52.9396 27.1739L52.6089 27.5741L52.9743 27.9564Z" fill="#F41328"/>
<path d="M44.0034 27.5044L44.5248 28.0258L45.1336 28.4598L45.6897 28.8431L46.2638 29.2076L46.8716 29.4688L47.4277 29.6595L48.0018 29.7816L48.6105 29.8512H49.1667L49.7228 29.7816L50.3147 29.6595L50.8709 29.434L51.3923 29.1738L51.9306 28.8431L52.4877 28.426L52.9743 27.9563L52.6089 27.5739L52.1222 27.991L51.6525 28.3734L51.1659 28.6515L50.6445 28.9126L50.1578 29.1381L49.6533 29.2424L49.1667 29.3129H48.6105L48.0891 29.2424L47.5846 29.1381L47.0106 28.9474L46.4892 28.7041L45.9678 28.3734L45.4286 28.0258L44.9072 27.5739L44.3858 27.1211L44.0034 27.5044Z" fill="#F41328"/>
<path d="M43.4293 18.7065L42.612 19.6639L42.038 20.7414L41.7777 21.8537L41.7261 22.9491L41.9168 24.131L42.3518 25.2442L43.047 26.3744L44.0033 27.5046L44.3857 27.1213L43.4988 26.0954L42.8732 25.0178L42.4213 23.9919L42.2296 22.9491L42.2644 21.9232L42.5603 20.8805L43.047 19.9588L43.8117 19.0551L43.4293 18.7065Z" fill="#F41328"/>
<path d="M49.6879 17.7511L49.097 17.2814L48.4187 16.9507L47.6539 16.8464H46.8714L46.0024 17.0212L45.1334 17.3857L44.2634 17.9597L43.4292 18.7066L43.8116 19.0551L44.5763 18.3937L45.3588 17.9249L46.1593 17.5426L46.8714 17.3509H47.6539L48.2627 17.4721L48.801 17.7511L49.3224 18.0978L49.6879 17.7511Z" fill="#F41328"/>
<path d="M49.7577 20.3927L50.1579 19.7849L50.3148 19.0897L50.1232 18.3588L49.6882 17.751L49.3228 18.0976L49.6187 18.5674L49.723 19.0897L49.6534 19.628L49.3923 20.0282L49.7577 20.3927Z" fill="#F41328"/>
<path d="M47.7583 20.7761H47.81L48.089 20.8456L48.384 20.8804L48.6104 20.9152L48.8359 20.8804L49.097 20.8456L49.392 20.7057L49.532 20.5666L49.7575 20.3928L49.392 20.0283L49.2361 20.1326L49.097 20.2538L48.9411 20.3242L48.8359 20.359L48.6104 20.3242L48.384 20.359L48.1585 20.3242L47.8626 20.2538H47.8973L47.7583 20.7761Z" fill="#F41328"/>
<path d="M46.0024 21.1237L46.194 20.9847L46.4195 20.8456L46.5764 20.7761L46.8019 20.7056L46.9757 20.654H47.2716L47.4971 20.7056L47.7582 20.7761L47.8973 20.2538L47.5844 20.1852L47.2716 20.1326H46.9757L46.7154 20.1852L46.4195 20.2538L46.1236 20.3928L45.915 20.5328L45.6548 20.7761L46.0024 21.1237Z" fill="#F41328"/>
<path d="M46.9063 24.6007L46.4197 24.0276L45.9678 23.5053L45.7245 23.0186L45.5854 22.6015L45.5328 22.1844L45.5854 21.8537L45.7761 21.4713L46.0025 21.1237L45.6549 20.7761L45.3243 21.1754L45.0462 21.7146L44.9419 22.1844L45.0462 22.7058L45.2031 23.245L45.5328 23.8181L45.9678 24.409L46.5239 24.983L46.9063 24.6007Z" fill="#F41328"/>
<path d="M50.418 25.4696L50.0356 25.7834L49.7228 25.9215L49.3583 25.9562H48.9064L48.4883 25.7834L47.9669 25.5391L47.4634 25.0872L46.9063 24.6006L46.5239 24.9829L47.0979 25.5391L47.6889 25.991L48.2629 26.2869L48.8359 26.4607L49.3583 26.5302L49.8618 26.426L50.3485 26.2174L50.8003 25.8519L50.418 25.4696Z" fill="#F41328"/>
<path d="M50.8708 24.0615V24.4964L50.8351 24.844L50.6791 25.1747L50.418 25.4697L50.8003 25.8521L51.132 25.4697L51.3574 24.9831L51.4617 24.4964L51.3922 23.9919L50.8708 24.0615Z" fill="#F41328"/>
<path d="M59.9628 11.5966L59.4593 11.0573L58.8683 10.6402L58.346 10.2579L57.7372 9.8924L57.1642 9.63123L56.608 9.42267L55.9992 9.31839L55.4252 9.24887L54.8691 9.21411L54.2603 9.28363L53.721 9.38791L53.1658 9.59647L52.6435 9.85764L52.0873 10.1705L51.5828 10.5528L51.0962 11.0226L51.4616 11.3871L51.9304 10.9878L52.3823 10.6402L52.8699 10.3621L53.3913 10.101L53.861 9.92716L54.3477 9.82288H54.8691L55.4252 9.78812L55.9297 9.85764L56.4511 9.96192L57.0073 10.1357L57.5465 10.3969L58.0501 10.7266L58.5724 11.0573L59.0938 11.5092L59.5974 11.9611L59.9628 11.5966Z" fill="#F41328"/>
<path d="M60.4845 20.4802L61.3197 19.4712L61.8937 18.3937L62.1887 17.2813L62.2761 16.1343L62.0496 14.9515L61.6325 13.8213L60.9373 12.6911L59.9631 11.5967L59.5977 11.9612L60.4845 12.9871L61.128 14.0299L61.5452 15.0905L61.7368 16.1343L61.6673 17.2118L61.3892 18.1851L60.8669 19.1762L60.12 20.0978L60.4845 20.4802Z" fill="#F41328"/>
<path d="M51.583 19.9588L52.0875 20.4802L52.6784 20.9151L53.2346 21.2806L53.8264 21.6103L54.4164 21.8884L54.9735 22.0622L55.5823 22.1844L56.1563 22.2539L56.7115 22.2886L57.3203 22.2191L57.8595 22.097L58.4157 21.9232L58.9371 21.662L59.4942 21.3154L60.0156 20.9499L60.4844 20.4802L60.1199 20.0978L59.6332 20.5149L59.1983 20.8804L58.7116 21.1237L58.1902 21.3849L57.7036 21.5756L57.2339 21.7146H56.7115L56.1563 21.7494L55.6518 21.662L55.1304 21.5408L54.5733 21.3492L54.0519 21.0889L53.5484 20.8456L52.9743 20.4802L51.9306 19.5764L51.583 19.9588Z" fill="#F41328"/>
<path d="M51.0964 11.0227L50.2274 12.0307L49.6534 13.1262L49.3584 14.2563L49.271 15.3517L49.4626 16.5862L49.8967 17.7511L50.6097 18.8456L51.583 19.9588L51.9306 19.5765L51.0616 18.5506L50.4181 17.5078L49.9662 16.4471L49.8102 15.3517L49.8619 14.3258L50.1578 13.283L50.6792 12.3267L51.4618 11.3872L51.0964 11.0227Z" fill="#F41328"/>
<path d="M57.1294 14.4302L57.616 15.0211L58.0501 15.5087L58.3112 15.9953L58.4503 16.4472V16.8465L58.4155 17.2119L58.2765 17.5426L57.9636 17.925L58.346 18.2904L58.7114 17.8555L58.9369 17.351L59.059 16.8465L58.9717 16.3598L58.8157 15.7868L58.485 15.2128L58.0501 14.6557L57.4948 14.0657L57.1294 14.4302Z" fill="#F41328"/>
<path d="M53.6177 13.5959L53.9653 13.2831L54.3129 13.0914L54.6774 13.0567H55.1302L55.5473 13.2474L55.9992 13.5086L56.5385 13.9257L57.1294 14.4302L57.4948 14.0657L56.903 13.4738L56.312 13.0567L55.738 12.7438L55.1997 12.5522L54.6774 12.4827L54.156 12.6048L53.6872 12.8481L53.2344 13.2136L53.6177 13.5959Z" fill="#F41328"/>
<path d="M54.4521 17.0558L53.9655 16.4818L53.5484 15.9951L53.2693 15.5085L53.1303 15.0557V14.6554L53.166 14.2909L53.3219 13.9603L53.6179 13.5957L53.2346 13.2134L52.8701 13.6653L52.6437 14.135L52.5225 14.6554L52.6089 15.1252L52.7479 15.7509L53.0955 16.2901L53.5484 16.8463L54.0867 17.4381L54.4521 17.0558Z" fill="#F41328"/>
<path d="M57.9636 17.9249L57.616 18.2199L57.2336 18.3937L56.8682 18.4463H56.451L55.9992 18.2547L55.5473 17.9944L55.0606 17.5773L54.4519 17.0559L54.0864 17.4383L54.6773 18.0292L55.2344 18.4463L55.7728 18.777L56.3815 18.9508L56.8682 19.0203L57.3905 18.916L57.8941 18.6549L58.3459 18.2904L57.9636 17.9249Z" fill="#F41328"/>
<path d="M18.738 44.7191C19.0339 44.4232 19.3727 44.2792 19.7542 44.2869C20.1358 44.2947 20.4823 44.4544 20.7938 44.7658L27.1479 51.12C27.4438 51.4159 27.5918 51.7352 27.5918 52.0778C27.5918 52.4204 27.4516 52.7319 27.1713 53.0122C26.8987 53.2848 26.5873 53.4249 26.2369 53.4327C25.8942 53.4327 25.575 53.2848 25.2791 52.9889L21.845 49.5548L22.9663 53.3393C23.0831 53.7208 23.1221 54.0401 23.0831 54.2971C23.0364 54.5462 22.9118 54.7721 22.7094 54.9745C22.5069 55.177 22.2811 55.3016 22.0319 55.3483C21.7749 55.3872 21.4557 55.3483 21.0741 55.2315L17.3714 54.1686L20.7354 57.5325C21.0235 57.8207 21.1676 58.1438 21.1676 58.502C21.1676 58.8446 21.0274 59.1561 20.7471 59.4364C20.4745 59.709 20.163 59.8492 19.8126 59.8569C19.47 59.8569 19.1507 59.709 18.8548 59.4131L12.5007 53.0589C12.1892 52.7475 12.0296 52.4009 12.0218 52.0194C12.0218 51.63 12.1697 51.2874 12.4656 50.9915C12.6759 50.7813 12.929 50.6528 13.2249 50.606C13.513 50.5515 13.8284 50.5788 14.171 50.6878L20.3616 52.58L18.4577 46.4011C18.2319 45.6925 18.3253 45.1318 18.738 44.7191ZM32.8106 47.443C32.1876 48.066 31.5413 48.5799 30.8716 48.9848C30.2019 49.3742 29.5751 49.6195 28.9911 49.7207C28.7575 49.7519 28.555 49.7441 28.3837 49.6973C28.2202 49.6428 28.0527 49.5299 27.8814 49.3586C27.6478 49.125 27.5154 48.8525 27.4843 48.541C27.4531 48.2295 27.531 47.9803 27.7179 47.7934C27.8191 47.6922 27.932 47.6104 28.0566 47.5481C28.1812 47.4859 28.3564 47.4275 28.5822 47.3729C29.0806 47.2328 29.5245 47.0459 29.9138 46.8123C30.311 46.5709 30.7081 46.2516 31.1052 45.8545C31.5646 45.3951 31.845 44.9824 31.9462 44.6164C32.0474 44.2348 31.9657 43.9116 31.7009 43.6469C31.5218 43.4678 31.2571 43.4289 30.9067 43.5301C30.5562 43.6157 30.0073 43.9078 29.2597 44.4061C28.3253 45.0135 27.5271 45.4223 26.8652 45.6326C26.2033 45.8428 25.631 45.8856 25.1482 45.761C24.6654 45.6209 24.206 45.3328 23.7699 44.8967C23.2716 44.3983 22.9679 43.7987 22.8588 43.0979C22.7498 42.3971 22.8394 41.6768 23.1275 40.937C23.4156 40.1817 23.8828 39.4809 24.5291 38.8346C25.0976 38.2661 25.666 37.8223 26.2345 37.503C26.8029 37.1837 27.4025 36.9735 28.0333 36.8722C28.2747 36.8333 28.481 36.845 28.6523 36.9073C28.8236 36.954 28.9911 37.0591 29.1546 37.2227C29.3882 37.4563 29.5206 37.7288 29.5517 38.0403C29.5907 38.344 29.5167 38.5893 29.3298 38.7762C29.2286 38.8774 29.1234 38.9591 29.0144 39.0214C28.8976 39.076 28.7146 39.1344 28.4654 39.1967C28.4031 39.2122 28.2318 39.2667 27.9515 39.3602C27.6712 39.438 27.3792 39.5743 27.0755 39.769C26.7718 39.9481 26.4759 40.1817 26.1878 40.4698C25.7906 40.867 25.5492 41.2641 25.4636 41.6612C25.3701 42.0506 25.448 42.3698 25.6972 42.619C25.8451 42.767 26.0087 42.8448 26.1878 42.8526C26.3669 42.8604 26.6199 42.7942 26.947 42.6541C27.2663 42.5061 27.7023 42.2491 28.2552 41.8831C29.1663 41.2991 29.9528 40.9098 30.6146 40.7151C31.2687 40.5126 31.8372 40.4737 32.32 40.5983C32.8028 40.7229 33.2505 40.9915 33.6632 41.4042C34.1772 41.9182 34.4886 42.5178 34.5977 43.203C34.6989 43.8805 34.5977 44.5891 34.294 45.3289C33.9903 46.0531 33.4958 46.7578 32.8106 47.443ZM41.4314 38.8221C40.606 39.6476 39.7105 40.2004 38.7449 40.4808C37.7871 40.7533 36.8177 40.7416 35.8365 40.4457C34.8632 40.142 33.9482 39.5619 33.0916 38.7053C32.2428 37.8566 31.6666 36.9455 31.3629 35.9721C31.067 34.991 31.0553 34.0215 31.3279 33.0637C31.6082 32.0981 32.1611 31.2026 32.9865 30.3772C33.9754 29.3883 35.1045 28.7809 36.3738 28.5551C36.5996 28.5161 36.7943 28.5239 36.9578 28.5784C37.1292 28.6251 37.3005 28.7342 37.4718 28.9055C37.7132 29.1469 37.8494 29.4233 37.8806 29.7348C37.9117 30.0307 37.83 30.276 37.6353 30.4706C37.5185 30.5875 37.3978 30.677 37.2732 30.7393C37.1408 30.7938 36.9734 30.8444 36.771 30.8911C36.3349 31.0002 35.9611 31.1403 35.6496 31.3116C35.3382 31.483 35.0539 31.6971 34.797 31.9541C34.1039 32.6471 33.7963 33.3752 33.8742 34.1383C33.9521 34.8858 34.4154 35.684 35.2642 36.5328C36.1207 37.3893 36.9267 37.8605 37.682 37.9461C38.4374 38.0162 39.1615 37.7047 39.8546 37.0117C40.0882 36.7781 40.279 36.5172 40.4269 36.2291C40.5671 35.9332 40.7306 35.5361 40.9175 35.0377C40.9954 34.7885 41.0577 34.6094 41.1044 34.5004C41.1511 34.3914 41.229 34.2824 41.338 34.1733C41.5327 33.9787 41.7819 33.9008 42.0855 33.9397C42.3892 33.9631 42.6618 34.0955 42.9032 34.3369C43.0667 34.5004 43.1757 34.6717 43.2302 34.8508C43.2847 35.0143 43.2925 35.209 43.2536 35.4348C43.0278 36.7041 42.4204 37.8332 41.4314 38.8221ZM43.6243 19.8329C43.9435 19.5136 44.2939 19.3579 44.6755 19.3657C45.0571 19.3579 45.4075 19.5136 45.7267 19.8329L51.9758 26.0819C52.295 26.4012 52.4547 26.7555 52.4547 27.1448C52.4624 27.5264 52.3067 27.8768 51.9874 28.1961C51.6682 28.5153 51.3178 28.6789 50.9362 28.6866C50.5546 28.6789 50.2003 28.5114 49.8733 28.1844L47.5372 25.8483L44.1732 29.2123L46.5093 31.5483C46.8286 31.8676 46.9882 32.2219 46.9882 32.6113C46.996 32.9928 46.8403 33.3432 46.521 33.6625C46.2017 33.9818 45.8513 34.1453 45.4698 34.1531C45.0882 34.1453 44.7339 33.9779 44.4068 33.6508L38.1578 27.4018C37.8386 27.0825 37.6789 26.736 37.6789 26.3622C37.6789 25.9729 37.8386 25.6186 38.1578 25.2993C38.4771 24.9801 38.8275 24.8243 39.2091 24.8321C39.5906 24.8243 39.941 24.9801 40.2603 25.2993L42.4679 27.5069L45.8319 24.143L43.6243 21.9354C43.305 21.6161 43.1454 21.2696 43.1454 20.8958C43.1454 20.5065 43.305 20.1522 43.6243 19.8329ZM55.6594 24.5241C55.3401 24.8434 54.9858 25.003 54.5965 25.003C54.2071 25.003 53.8528 24.8434 53.5335 24.5241L47.2845 18.2751C46.9652 17.9558 46.8056 17.6249 46.8056 17.2823C46.8056 16.9396 46.9652 16.6087 47.2845 16.2894L51.2091 12.3648C51.5595 12.0144 51.8866 11.8275 52.1903 11.8042C52.4862 11.773 52.7821 11.9054 53.078 12.2013C53.3661 12.4894 53.4907 12.7853 53.4518 13.089C53.4206 13.3849 53.2337 13.7042 52.8911 14.0468L50.0878 16.8501L51.6063 18.3685L54.176 15.7989C54.5186 15.4562 54.8417 15.2732 55.1454 15.2499C55.4569 15.2187 55.7567 15.3472 56.0448 15.6353C56.3329 15.9234 56.4575 16.2194 56.4186 16.523C56.3875 16.8189 56.2006 17.1382 55.8579 17.4808L53.2882 20.0505L55.6477 22.41C55.9747 22.737 56.1383 23.0952 56.1383 23.4846C56.1383 23.8583 55.9786 24.2049 55.6594 24.5241Z" fill="white"/>
<path d="M55.897 4.61084L54.6052 4.6813L53.3605 4.86919L51.9982 5.05708L50.683 5.36241L49.2738 5.78516L47.8646 6.20792L46.4085 6.79508L44.9758 7.31178L43.5431 8.03987L42.087 8.72097L40.6073 9.42557L39.1042 10.2241L37.648 11.0931L36.1684 11.9856L34.6887 12.9485L33.2326 13.9585L31.8234 14.9449L30.3437 16.0253L28.958 17.0822L27.5723 18.2565L26.1866 19.3838L24.8714 20.5347L23.5326 21.7795L23.4622 21.8734L18.7649 17.1761L29.2164 6.7716L28.4178 5.97306L27.6897 5.17452L17.2148 15.626L13.363 11.7977L18.5065 6.70114L17.755 5.92608L16.9564 5.12754L11.8129 10.2476L7.39743 5.83214L5.84732 7.35876L10.2628 11.7977L5.8943 16.1427L7.42092 17.7163L11.8129 13.3478L15.6412 17.1996L5.8943 26.923L7.42092 28.4496L17.1913 18.7497L21.8886 23.4705L19.9157 25.5373L17.5671 28.1913L15.3828 30.8452L13.316 33.6166L11.4136 36.388L9.79305 39.1594L8.26643 41.9778L6.99816 44.7727L5.96475 47.4972L5.1897 50.1511L4.79043 52.7581L4.60254 55.2007L4.86089 57.5728L5.44805 59.8041L6.48146 61.8474L7.96111 63.6558L8.80662 64.5014L9.79305 65.159L10.756 65.6992L11.8129 66.1924L12.9168 66.5447L14.0676 66.7326L15.2184 66.85L16.3928 66.9439L17.5671 66.85L18.8823 66.7326L20.1271 66.5447L21.4658 66.2628L22.7811 65.8401L24.1198 65.4408L25.5055 64.9006L26.8677 64.337L28.2769 63.6558L29.7096 63.0217L31.0953 62.2232L32.5045 61.4246L33.9137 60.5791L35.2994 59.5927L36.779 58.6767L38.1882 57.6198L39.6209 56.5629L41.0066 55.506L42.3923 54.3552L43.8015 53.1574L45.1637 51.9596L46.5259 50.7148L47.8646 49.47L49.1564 48.1548L51.9043 45.3129L54.4408 42.4241L56.7895 39.5117L58.9033 36.5524L60.8057 33.7106L62.5437 30.7983L63.9294 27.9799L65.1272 25.2085L66.0901 22.5075L66.7478 19.924L67.1235 17.4814L67.241 15.1328L67.0296 12.9251L66.4894 10.8817L65.5499 8.97932L64.2112 7.38224L63.4596 6.67765L62.4732 6.04351L61.5338 5.50333L60.4769 5.12754L59.42 4.86919L58.2691 4.6813L57.0478 4.61084H55.897ZM55.897 6.84206H57.0478L58.0578 6.88903L58.9737 7.05343L59.7958 7.2883L60.6413 7.59362L61.3928 7.96941L62.0505 8.43914L62.6846 8.95584L63.6241 10.1771L64.3521 11.6333L64.7749 13.2773L65.0332 15.1328L64.8923 17.2466L64.54 19.4778L63.9294 21.9204L63.0604 24.4099L61.933 27.0169L60.5473 29.7883L58.9033 32.4893L57.0478 35.3077L55.0045 38.173L52.7498 41.0149L50.2602 43.8567L47.6298 46.6047L46.291 47.8494L44.9758 49.0942L43.684 50.2685L42.2983 51.4664L40.9831 52.6407L39.6209 53.7211L38.2587 54.778L36.873 55.8114L35.5107 56.8213L34.1485 57.7373L32.7393 58.6532L31.4006 59.4987L29.9914 60.2268L28.6527 61.0254L27.314 61.6595L25.9987 62.2701L24.707 62.8103L23.3917 63.327L22.1939 63.7028L20.9491 64.0551L19.7748 64.3135L18.577 64.5248L17.4966 64.6423H15.3593L14.3494 64.5248L13.4335 64.3135L12.541 64.0551L11.7894 63.7028L10.9439 63.2331L10.2158 62.7164L9.51121 62.1292L8.40735 60.6731L7.56184 59.029L7.06862 57.1971L6.88073 55.2007L6.99816 52.9695L7.42092 50.6208L8.10202 48.1548L9.06497 45.5947L10.2628 42.9408L11.6955 40.2633L13.363 37.5624L15.1715 34.8849L17.1678 32.2309L19.2816 29.577L21.5363 27.0169L23.8849 24.5743L25.0827 23.3765L26.351 22.2492L27.6897 21.0983L28.9815 19.9475L30.3437 18.8906L31.7059 17.8102L33.0447 16.8003L34.5008 15.8139L35.957 14.804L37.3662 13.935L38.7754 13.019L40.1846 12.2205L41.6642 11.4219L43.0499 10.7173L44.4826 10.0362L45.8918 9.37859L47.2305 8.83841L48.6162 8.36868L49.861 7.92243L51.1997 7.59362L52.4445 7.2883L53.6423 7.05343L54.8401 6.88903L55.897 6.84206Z" fill="white"/>
</svg>
