<svg width="255" height="11" viewBox="0 0 255 11" fill="none" xmlns="http://www.w3.org/2000/svg">
<path d="M1 2L7.38326 9L13.7665 2L20.1498 9L26.5331 2L32.9163 9L39.2996 2L45.6829 9L52.0661 2L58.4494 9L64.8327 2L71.2159 9L77.9432 2L84.6705 9L91.3977 2L98.125 9L105.063 2L112 9" stroke="#002CF5" stroke-width="2"/>
<path d="M105 2L111.383 9L117.767 2L124.15 9L130.533 2L136.916 9L143.3 2L149.683 9L156.066 2L162.449 9L168.833 2L175.216 9L181.943 2L188.67 9L195.398 2L202.125 9L209.063 2L216 9" stroke="#002CF5" stroke-width="2"/>
<path d="M209 2L215.383 9L221.767 2L228.15 9L234.533 2L240.916 9L247.3 2L253.683 9" stroke="#002CF5" stroke-width="2"/>
</svg>
